<?xml version="1.0" encoding="UTF-8"?>
<svg xmlns="http://www.w3.org/2000/svg" 
     viewBox="0 0 590 84" 
     width="590" 
     height="84">
  <title>Max Health Inc. Logo</title>
  <rect x="0" y="0" width="590" height="84" fill="#000000"/>
  <path d="M30.26 67.13L16.14 67.13L16.14 16.01L34.72 16.01L45.52 48.48L56.32 16.01L74.90 16.01L74.90 67.13L60.78 67.13L60.78 38.33L50.49 66.91L40.48 66.91L30.26 38.33L30.26 67.13ZM94.98 67.99L94.98 67.99Q88.86 67.99 84.90 65.18Q80.94 62.38 80.94 57.34L80.94 57.34Q80.94 52.15 84.36 49.38Q87.78 46.61 94.12 45.24L94.12 45.24L105.78 42.79Q105.78 39.77 104.49 38.18Q103.19 36.60 100.89 36.60L100.89 36.60Q96.06 36.60 95.42 41.28L95.42 41.28L81.59 40.85Q82.74 33.79 87.71 30.59Q92.68 27.38 100.89 27.38L100.89 27.38Q119.75 27.38 119.75 43.94L119.75 43.94L119.75 55.32Q119.75 57.19 120.36 57.77Q120.98 58.34 122.06 58.34L122.06 58.34L122.85 58.34L122.85 67.13Q122.20 67.34 120.76 67.52Q119.32 67.70 117.95 67.70L117.95 67.70Q116.15 67.70 114.24 67.20Q112.34 66.70 110.82 65.29Q109.31 63.89 108.66 61.15L108.66 61.15Q107.15 64.39 103.80 66.19Q100.46 67.99 94.98 67.99ZM98.87 59.21L98.87 59.21Q101.82 59.21 103.80 57.41Q105.78 55.61 105.78 51.86L105.78 51.86L105.78 50.57L99.45 52.15Q97.65 52.58 96.46 53.56Q95.27 54.53 95.27 56.04L95.27 56.04Q95.27 59.21 98.87 59.21ZM139.26 67.13L124.58 67.13L138.11 47.54L124.72 28.25L139.12 28.25L146.18 39.34L153.09 28.25L167.78 28.25L154.38 47.54L167.99 67.13L153.59 67.13L146.46 55.61L139.26 67.13ZM205.22 67.13L191.10 67.13L191.10 16.01L205.22 16.01L205.22 35.74L220.41 35.74L220.41 16.01L234.52 16.01L234.52 67.13L220.41 67.13L220.41 47.04L205.22 47.04L205.22 67.13ZM261.38 67.99L261.38 67.99Q255.11 67.99 250.43 65.47Q245.75 62.95 243.16 58.38Q240.57 53.81 240.57 47.69L240.57 47.69Q240.57 41.57 243.16 37.03Q245.75 32.50 250.43 29.94Q255.11 27.38 261.38 27.38L261.38 27.38Q267.64 27.38 272.21 30.01Q276.78 32.64 279.23 37.46Q281.68 42.29 281.68 48.84L281.68 48.84L281.68 51.29L254.97 51.29Q255.11 54.82 256.95 56.51Q258.78 58.20 261.66 58.20L261.66 58.20Q263.75 58.20 265.23 57.41Q266.70 56.62 267.35 54.60L267.35 54.60L281.18 55.32Q279.59 61.58 274.26 64.79Q268.94 67.99 261.38 67.99ZM254.97 43.80L254.97 43.80L267.71 43.80Q267.64 40.42 265.91 38.65Q264.18 36.89 261.38 36.89L261.38 36.89Q258.71 36.89 256.95 38.76Q255.18 40.63 254.97 43.80ZM299.61 67.99L299.61 67.99Q293.49 67.99 289.53 65.18Q285.57 62.38 285.57 57.34L285.57 57.34Q285.57 52.15 288.99 49.38Q292.41 46.61 298.74 45.24L298.74 45.24L310.41 42.79Q310.41 39.77 309.11 38.18Q307.82 36.60 305.51 36.60L305.51 36.60Q300.69 36.60 300.04 41.28L300.04 41.28L286.22 40.85Q287.37 33.79 292.34 30.59Q297.30 27.38 305.51 27.38L305.51 27.38Q324.38 27.38 324.38 43.94L324.38 43.94L324.38 55.32Q324.38 57.19 324.99 57.77Q325.60 58.34 326.68 58.34L326.68 58.34L327.47 58.34L327.47 67.13Q326.82 67.34 325.38 67.52Q323.94 67.70 322.58 67.70L322.58 67.70Q320.78 67.70 318.87 67.20Q316.96 66.70 315.45 65.29Q313.94 63.89 313.29 61.15L313.29 61.15Q311.78 64.39 308.43 66.19Q305.08 67.99 299.61 67.99ZM303.50 59.21L303.50 59.21Q306.45 59.21 308.43 57.41Q310.41 55.61 310.41 51.86L310.41 51.86L310.41 50.57L304.07 52.15Q302.27 52.58 301.08 53.56Q299.90 54.53 299.90 56.04L299.90 56.04Q299.90 59.21 303.50 59.21ZM351.09 67.13L343.24 67.13Q337.62 67.13 334.53 64.32Q331.43 61.51 331.43 55.18L331.43 55.18L331.43 16.01L345.40 16.01L345.40 53.59Q345.40 55.61 346.34 56.44Q347.27 57.26 349.00 57.26L349.00 57.26L351.09 57.26L351.09 67.13ZM382.19 67.13L370.67 67.13Q364.12 67.13 361.10 64.07Q358.07 61.01 358.07 54.31L358.07 54.31L358.07 38.11L351.45 38.11L351.45 28.25L358.07 28.25L358.07 19.10L372.04 19.10L372.04 28.25L382.19 28.25L382.19 38.11L372.04 38.11L372.04 52.30Q372.04 55.18 373.23 56.22Q374.42 57.26 376.86 57.26L376.86 57.26L382.19 57.26L382.19 67.13ZM401.20 67.13L387.23 67.13L387.23 16.01L401.20 16.01L401.20 32.28Q402.86 29.83 405.48 28.61Q408.11 27.38 411.28 27.38L411.28 27.38Q417.98 27.38 421.29 31.52Q424.60 35.66 424.60 42.14L424.60 42.14L424.60 67.13L410.63 67.13L410.63 45.24Q410.63 41.78 409.70 39.95Q408.76 38.11 406.24 38.11L406.24 38.11Q401.20 38.11 401.20 45.67L401.20 45.67L401.20 67.13ZM462.62 67.13L448.50 67.13L448.50 16.01L462.62 16.01L462.62 67.13ZM485.51 67.13L471.54 67.13L471.54 28.25L484.07 28.25L484.36 34.22Q485.94 30.48 488.90 28.93Q491.85 27.38 495.59 27.38L495.59 27.38Q501.64 27.38 505.28 31.20Q508.91 35.02 508.91 42.14L508.91 42.14L508.91 67.13L494.94 67.13L494.94 46.97Q494.94 42.72 494.12 40.42Q493.29 38.11 490.48 38.11L490.48 38.11Q487.82 38.11 486.66 40.42Q485.51 42.72 485.51 46.97L485.51 46.97L485.51 67.13ZM535.26 67.99L535.26 67.99Q528.93 67.99 524.21 65.47Q519.50 62.95 516.87 58.38Q514.24 53.81 514.24 47.69L514.24 47.69Q514.24 41.57 516.87 37.03Q519.50 32.50 524.21 29.94Q528.93 27.38 535.26 27.38L535.26 27.38Q540.88 27.38 545.34 29.36Q549.81 31.34 552.58 34.98Q555.35 38.62 555.86 43.73L555.86 43.73L541.53 44.30Q541.10 40.85 539.44 39.16Q537.78 37.46 535.26 37.46L535.26 37.46Q532.02 37.46 530.30 40.13Q528.57 42.79 528.57 47.69L528.57 47.69Q528.57 52.66 530.30 55.32Q532.02 57.98 535.26 57.98L535.26 57.98Q537.86 57.98 539.55 56.29Q541.24 54.60 541.53 50.93L541.53 50.93L555.86 51.36Q555.42 56.47 552.72 60.22Q550.02 63.96 545.56 65.98Q541.10 67.99 535.26 67.99ZM573.86 67.13L559.74 67.13L559.74 54.17L573.86 54.17L573.86 67.13Z" fill="#ffffff"/>
  <rect x="1" y="1" width="588" height="82" fill="none" stroke="#ffffff" stroke-width="2"/>
</svg>